<svg width="16" height="20" viewBox="0 0 14.063 15.875"><path stroke-width="0" d="M73.163,620.358c0-4.364-6.163-5.282-6.163-5.282s-6.163.913-6.163,5.282,0.136,5.149-.88,6.164c0,0,.818,4.4,4.4,4.4,0,0-1.722-1.734,0-6.18,0,0-2.657.034-1.761-3.5a3.977,3.977,0,0,1,3.522,1.747v4.4L67,628.262l0.881-.879v-4.4a3.745,3.745,0,0,1,3.522-1.747c0.91,3.488-1.761,3.522-1.761,3.522,1.78,4.447,0,6.163,0,6.163,3.584,0,4.4-4.4,4.4-4.4C72.948,625.428,73.163,624.723,73.163,620.358Z" transform="translate(-59.969 -615.063)"></path></svg>