<svg width="18" height="18"><path stroke-width="0" fill-rule="evenodd" d="M17.989,11.031 C17.982,11.251 16.573,12.756 15.811,12.750 C15.811,12.750 15.811,11.096 15.811,10.344 C15.811,9.986 15.871,9.656 16.174,9.656 C16.493,9.656 16.900,9.656 16.900,9.656 L16.900,7.937 L15.254,7.937 L15.254,9.835 C15.254,10.105 15.035,10.324 14.765,10.324 L14.650,10.324 C14.381,10.324 14.162,10.105 14.162,9.835 L14.162,7.937 L12.544,7.937 L12.544,9.656 C12.544,9.656 12.950,9.656 13.270,9.656 C13.572,9.656 13.633,9.986 13.633,10.344 C13.633,11.096 13.633,12.750 13.633,12.750 C12.870,12.756 11.461,11.251 11.455,11.031 C11.441,10.562 11.439,9.376 11.455,7.937 C11.467,6.741 13.233,5.631 14.162,5.128 L14.162,4.989 C14.162,4.719 14.381,4.500 14.650,4.500 L14.765,4.500 C15.035,4.500 15.254,4.719 15.254,4.989 L15.254,5.113 C16.175,5.608 17.976,6.730 17.989,7.937 C18.004,9.376 18.002,10.562 17.989,11.031 ZM9.000,1.500 C7.620,1.500 6.350,2.062 5.324,3.000 L3.522,3.000 C4.871,1.163 6.822,-0.000 9.000,-0.000 C11.178,-0.000 13.129,1.163 14.478,3.000 L12.676,3.000 C11.650,2.062 10.380,1.500 9.000,1.500 ZM3.805,4.989 L3.805,5.116 C4.728,5.613 6.521,6.732 6.534,7.937 C6.550,9.376 6.548,10.562 6.534,11.031 C6.528,11.251 5.119,12.756 4.356,12.750 C4.356,12.750 4.356,11.096 4.356,10.344 C4.356,9.986 4.417,9.656 4.719,9.656 C5.038,9.656 5.445,9.656 5.445,9.656 L5.445,7.937 L3.805,7.937 L3.805,9.835 C3.805,10.105 3.586,10.324 3.317,10.324 L3.202,10.324 C2.932,10.324 2.713,10.105 2.713,9.835 L2.713,7.937 L1.089,7.937 L1.089,9.656 C1.089,9.656 1.496,9.656 1.815,9.656 C2.118,9.656 2.178,9.986 2.178,10.344 C2.178,11.096 2.178,12.750 2.178,12.750 C1.415,12.756 0.006,11.251 -0.000,11.031 C-0.014,10.562 -0.016,9.376 -0.000,7.937 C0.013,6.738 1.786,5.626 2.713,5.125 L2.713,4.989 C2.713,4.719 2.932,4.500 3.202,4.500 L3.317,4.500 C3.586,4.500 3.805,4.719 3.805,4.989 ZM7.346,9.761 C7.346,8.939 8.086,8.272 9.000,8.272 C9.914,8.272 10.654,8.939 10.654,9.761 C10.654,10.583 9.914,11.250 9.000,11.250 C8.086,11.250 7.346,10.583 7.346,9.761 ZM9.000,16.500 C10.380,16.500 11.650,15.938 12.676,15.000 L14.478,15.000 C13.129,16.837 11.178,18.000 9.000,18.000 C6.822,18.000 4.871,16.837 3.522,15.000 L5.324,15.000 C6.350,15.938 7.620,16.500 9.000,16.500 Z"></path></svg>